<?xml version="1.0" encoding="UTF-8"?>
<svg id="Calque_1" data-name="Calque 1" xmlns="http://www.w3.org/2000/svg" xmlns:xlink="http://www.w3.org/1999/xlink" viewBox="0 0 2467 956">
  <defs>
    <style>
      .cls-1 {
        fill: url(#Dégradé_sans_nom_20);
      }

      .cls-2 {
        fill: url(#Dégradé_sans_nom_921-2);
      }

      .cls-3 {
        fill: none;
        stroke: url(#Dégradé_sans_nom_359);
        stroke-miterlimit: 10;
        stroke-width: 15px;
      }

      .cls-4 {
        fill: url(#Dégradé_sans_nom_921);
      }

      .cls-5 {
        fill: url(#Dégradé_sans_nom_921-3);
      }
    </style>
    <linearGradient id="Dégradé_sans_nom_921" data-name="Dégradé sans nom 921" x1="564.82" y1="621.14" x2="39.15" y2="95.47" gradientUnits="userSpaceOnUse">
      <stop offset="0" stop-color="#3400c0"/>
      <stop offset=".03" stop-color="#4714c5"/>
      <stop offset=".12" stop-color="#7240d2"/>
      <stop offset=".21" stop-color="#9768dd"/>
      <stop offset=".3" stop-color="#b789e6"/>
      <stop offset=".4" stop-color="#d1a4ee"/>
      <stop offset=".51" stop-color="#e5b9f4"/>
      <stop offset=".63" stop-color="#f4c8f8"/>
      <stop offset=".78" stop-color="#fcd1fb"/>
      <stop offset="1" stop-color="#ffd4fc"/>
    </linearGradient>
    <linearGradient id="Dégradé_sans_nom_921-2" data-name="Dégradé sans nom 921" x1="2457.21" y1="722.07" x2="1945.47" y2="210.33" xlink:href="#Dégradé_sans_nom_921"/>
    <linearGradient id="Dégradé_sans_nom_20" data-name="Dégradé sans nom 20" x1="1225" y1="536.81" x2="1225" y2="1021.75" gradientUnits="userSpaceOnUse">
      <stop offset=".28" stop-color="#0b0014"/>
      <stop offset=".73" stop-color="#0b0014" stop-opacity=".91"/>
      <stop offset=".89" stop-color="#0b0014" stop-opacity=".57"/>
      <stop offset="1" stop-color="#0b0014" stop-opacity="0"/>
    </linearGradient>
    <linearGradient id="Dégradé_sans_nom_921-3" data-name="Dégradé sans nom 921" x1="1524.09" y1="729.16" x2="879.89" y2="84.97" xlink:href="#Dégradé_sans_nom_921"/>
    <linearGradient id="Dégradé_sans_nom_359" data-name="Dégradé sans nom 359" x1="-14.72" y1="686.24" x2="2466.4" y2="686.24" gradientUnits="userSpaceOnUse">
      <stop offset="0" stop-color="#000"/>
      <stop offset=".49" stop-color="#ffe82a"/>
      <stop offset=".66" stop-color="#c6965b"/>
      <stop offset=".82" stop-color="#965085"/>
      <stop offset=".94" stop-color="#78259f"/>
      <stop offset="1" stop-color="#6d15aa"/>
    </linearGradient>
  </defs>
  <g>
    <path class="cls-4" d="M372,813.96h-139.8V253.34H21.55V113.07h560.62v140.27h-210.17v560.62Z"/>
    <path class="cls-2" d="M2437.17,742.12c-32.59,28.03-69.08,49.53-109.48,64.52s-82.27,22.48-125.61,22.48c-33.25,0-65.27-4.33-96.05-12.95-30.8-8.62-59.64-20.84-86.52-36.66-26.88-15.8-51.39-34.78-73.55-56.94s-41.14-46.69-56.95-73.56-28.03-55.72-36.66-86.52c-8.64-30.78-12.95-62.8-12.95-96.05s4.31-65.33,12.95-96.28c8.62-30.95,20.84-59.88,36.66-86.77,15.81-26.88,34.8-51.41,56.95-73.56s46.67-41.12,73.55-56.94c26.88-15.8,55.72-28.02,86.52-36.66,30.78-8.62,62.8-12.95,96.05-12.95,43.34,0,85.2,7.42,125.61,22.25s76.89,36.41,109.48,64.75l-74.28,122.19c-20.53-22.16-44.81-39.17-72.83-51.06-28.03-11.89-57.36-17.84-87.98-17.84s-59.97,5.88-87,17.59c-27.05,11.73-50.67,27.62-70.88,47.66-20.2,20.05-36.17,43.67-47.89,70.88-11.73,27.22-17.59,56.12-17.59,86.75s5.86,59.39,17.59,86.27c11.72,26.89,27.69,50.44,47.89,70.64s43.83,36.17,70.88,47.89c27.03,11.73,56.03,17.59,87,17.59s59.95-5.94,87.98-17.84c28.02-11.89,52.3-28.92,72.83-51.08l74.28,122.2Z"/>
  </g>
  <path class="cls-1" d="M2465,956l-105.16-20.07-26.9-44.02-37.91-42.8-33.02-52.58-41.58-30.57-95.38-68.48-62.36-25.68-31.79-41.58-173.64-68.48-8.56-7.34-103.94-24.46-6.11-8.56-19.57-7.34-149.18-24.46-23.23-7.34-22.01-4.89-51.36-17.12-30.57-9.78-11.01,6.11h-11.01l-4.89,4.89-35.46,2.45-8.56-6.11-18.34,1.22-47.69-8.56-64.81-18.34h-18.34l-21.46-4.89-2.15,1.76-2.07.69-14.51-4.89-3.83,2.45-22.01,31.79-111.28,22.01-8.56,23.23h-23.43l-38.93,31.79h-17.27l-16.97,19.57-275.14-14.67-61.14,36.68-41.58,25.68-59.92,48.91-47.69,47.69-39.13,52.58-24.46,11.01-44.02-48.91-61.14,25.68-45.24,34.24s-35.46,36.68-34.85,36.68-70.92,37.91-70.92,37.91L-15,956"/>
  <path class="cls-5" d="M1552.2,613.57c0,29-5.47,56.3-16.38,81.88-10.92,25.58-25.91,47.89-44.97,66.95s-41.39,34.06-66.97,44.97-52.86,16.38-81.86,16.38c-26.08,0-51.09-4.56-75.03-13.69-23.95-9.12-45.55-22.48-64.77-40.08-19.22,17.59-40.89,30.95-65,40.08-24.12,9.12-49.2,13.69-75.27,13.69-29,0-56.3-5.47-81.88-16.38-25.59-10.91-47.91-25.91-66.97-44.97s-34.06-41.38-44.97-66.95-16.36-52.88-16.36-81.88V113.07h140.27v500.5c0,9.78,1.78,18.98,5.38,27.61,3.59,8.64,8.56,16.14,14.91,22.48,6.34,6.36,13.77,11.33,22.23,14.91,8.47,3.59,17.61,5.38,27.39,5.38s18.89-1.78,27.36-5.38c8.47-3.58,15.89-8.55,22.25-14.91s11.31-13.84,14.91-22.48c3.58-8.62,5.38-17.83,5.38-27.61V113.07h140.27v500.5c0,9.78,1.78,18.98,5.38,27.61,3.59,8.64,8.56,16.14,14.92,22.48,6.34,6.36,13.77,11.33,22.23,14.91,8.47,3.59,17.59,5.38,27.38,5.38s18.89-1.78,27.36-5.38c8.47-3.58,15.89-8.55,22.25-14.91s11.39-13.84,15.14-22.48c3.75-8.62,5.62-17.83,5.62-27.61V113.07h139.8v500.5Z"/>
  <path class="cls-3" d="M2465.5,948.5l-103.66-12.57-26.9-44.02-37.91-42.8-33.02-52.58-41.58-30.57-95.38-68.48-62.36-25.68-31.79-41.58-173.64-68.48-8.56-7.34-103.94-24.46-6.11-8.56-19.57-7.34-149.18-24.46-23.23-7.34-22.01-4.89-51.36-17.12-30.57-9.78-11.01,6.11h-11.01l-4.89,4.89-35.46,2.45-8.56-6.11-18.34,1.22-47.69-8.56-64.81-18.34h-18.34l-21.46-4.89-2.15,1.76-2.07.69-14.51-4.89-3.83,2.45-22.01,31.79-111.28,22.01-8.56,23.23h-23.43l-38.93,31.79h-17.27l-16.97,19.57-275.14-14.67-61.14,36.68-41.58,25.68-59.92,48.91-47.69,47.69-39.13,52.58-24.46,11.01-44.02-48.91-61.14,25.68-45.24,34.24s-35.46,36.68-34.85,36.68-70.92,37.91-70.92,37.91L-10.5,949.5"/>
</svg>